<svg xmlns="http://www.w3.org/2000/svg" width="26" height="26" viewBox="0 0 26 26"><g><g><path fill="#fff" d="M26 9.208v16.25c0 .299-.243.542-.542.542H9.208a.542.542 0 0 1-.541-.542v-1.625h-3.25v.542a.542.542 0 0 1-1.084 0V9.694C1.903 9.42 0 7.377 0 4.874A4.88 4.88 0 0 1 4.875 0 4.88 4.88 0 0 1 9.75 4.875c0 2.502-1.902 4.546-4.333 4.819v13.055h3.25V9.208c0-.299.242-.542.541-.542h11.375V7.04c0-.299.243-.542.542-.542h2.167c.299 0 .541.243.541.542v1.625h1.625c.3 0 .542.243.542.542zm-20.583-6.5c0-.3-.243-.542-.542-.542a2.712 2.712 0 0 0-2.708 2.709.542.542 0 0 0 1.083 0c0-.896.729-1.626 1.625-1.626a.542.542 0 0 0 .542-.54zm17.333 9.208H11.917V22.75H22.75zM13 17.333A4.338 4.338 0 0 1 17.333 13a4.338 4.338 0 0 1 4.334 4.333 4.338 4.338 0 0 1-4.334 4.334A4.338 4.338 0 0 1 13 17.333zm2.167 0a.542.542 0 0 0 1.083 0c0-.597.486-1.083 1.083-1.083a.542.542 0 0 0 0-1.084 2.169 2.169 0 0 0-2.166 2.167z"/></g></g></svg>